<?xml version="1.0" encoding="utf-8"?>
<!-- Generator: Adobe Illustrator 25.0.1, SVG Export Plug-In . SVG Version: 6.00 Build 0)  -->
<svg version="1.1" id="Layer_1" xmlns="http://www.w3.org/2000/svg" xmlns:xlink="http://www.w3.org/1999/xlink" x="0px" y="0px"
	 viewBox="0 0 411.3 99.9" style="enable-background:new 0 0 411.3 99.9;" xml:space="preserve">
<style type="text/css">
	.st0{fill:url(#SVGID_1_);}
	.st1{fill:url(#SVGID_2_);}
	.st2{opacity:0.55;fill:#010001;}
	.st3{fill:#985B0B;}
	.st4{fill:url(#SVGID_3_);}
	.st5{fill:url(#SVGID_4_);}
	.st6{fill:#FF6C6C;}
	.st7{fill:#3F0509;}
	.st8{fill:#FFF9EF;}
</style>
<g>
	<g>
		<linearGradient id="SVGID_1_" gradientUnits="userSpaceOnUse" x1="205.6536" y1="-0.7428" x2="205.6536" y2="101.2527">
			<stop  offset="0" style="stop-color:#FCAB31"/>
			<stop  offset="1" style="stop-color:#7F4601"/>
		</linearGradient>
		<path class="st0" d="M390.6,0H20.7C9.3,0,0,9.3,0,20.7v58.5c0,11.4,9.3,20.7,20.7,20.7h369.9c11.4,0,20.7-9.3,20.7-20.7V20.7
			C411.3,9.3,402,0,390.6,0z"/>
		<linearGradient id="SVGID_2_" gradientUnits="userSpaceOnUse" x1="205.6536" y1="-0.5023" x2="205.6536" y2="68.4745">
			<stop  offset="0" style="stop-color:#FCAB31"/>
			<stop  offset="1" style="stop-color:#7F4601"/>
		</linearGradient>
		<path class="st1" d="M390.6,0H20.7C9.3,0,0,9.3,0,20.7v26.2c0,11.4,9.3,20.7,20.7,20.7h369.9c11.4,0,20.7-9.3,20.7-20.7V20.7
			C411.3,9.3,402,0,390.6,0z"/>
		<path class="st2" d="M386.2,96.6H21.1c-9.8,0-17.8-8-17.8-17.8V25.1c0-9,7.3-16.4,16.4-16.4h366.6c9,0,16.4,7.3,16.4,16.4v55.2
			C402.6,89.3,395.3,96.6,386.2,96.6z"/>
		<path class="st3" d="M390.6,0H20.7C9.3,0,0,9.3,0,20.7v1C0,10.3,9.3,1,20.7,1h369.9c11.4,0,20.7,9.3,20.7,20.7v-1
			C411.3,9.3,402,0,390.6,0z"/>
		<linearGradient id="SVGID_3_" gradientUnits="userSpaceOnUse" x1="205.6536" y1="94.5604" x2="205.6536" y2="4.8162">
			<stop  offset="0" style="stop-color:#6D0B0F"/>
			<stop  offset="1" style="stop-color:#BB2929"/>
		</linearGradient>
		<path class="st4" d="M390.6,93.9H20.7C12.6,93.9,6,87.3,6,79.2V20.7C6,12.6,12.6,6,20.7,6h369.9c8.1,0,14.7,6.6,14.7,14.7v58.5
			C405.3,87.3,398.7,93.9,390.6,93.9z"/>
		<linearGradient id="SVGID_4_" gradientUnits="userSpaceOnUse" x1="205.6526" y1="58.4396" x2="205.6526" y2="5.9961">
			<stop  offset="0" style="stop-color:#9F1A1A"/>
			<stop  offset="1" style="stop-color:#B82324"/>
		</linearGradient>
		<path class="st5" d="M390.6,6H20.7C12.6,6,6,12.6,6,20.7v22.4c0,0,0,15.4,81.5,15.4h236.3c81.5,0,81.5-15.4,81.5-15.4V20.7
			C405.3,12.6,398.7,6,390.6,6z"/>
		<path class="st6" d="M390.6,6H20.7C12.6,6,6,12.6,6,20.7v2.2c0-8.1,6.6-14.7,14.7-14.7h369.9c8.1,0,14.7,6.6,14.7,14.7v-2.2
			C405.3,12.6,398.7,6,390.6,6z"/>
		<path class="st7" d="M20.7,93.9h369.9c8.1,0,14.7-6.6,14.7-14.7V77c0,8.1-6.6,14.7-14.7,14.7H20.7C12.6,91.7,6,85.1,6,77v2.2
			C6,87.3,12.6,93.9,20.7,93.9z"/>
	</g>
	<g>
		<g>
			<path class="st8" d="M139.1,64.4c1.2-0.5,1.9-1.4,1.9-2.9V42.9c0-1.5-0.7-2.4-1.9-2.9v-0.1h14.3c5.1,0,8.1,3.1,8.1,6.7
				c0,1.9-0.8,3.8-3,5.1c2.8,1,4.2,3,4.2,5.6c0,4.1-3.6,7.1-8.6,7.1L139.1,64.4L139.1,64.4z M153,49.7c2.1,0,3.2-1.2,3.2-2.7
				s-1.1-2.6-3.2-2.6h-6.7v5.3H153z M153.6,59.9c2.6,0,3.7-1.4,3.7-2.9c0-1.5-1.1-2.9-3.7-2.9h-7.3v5.8H153.6z"/>
			<path class="st8" d="M190.6,57.8l-1.8,6.7h-20.3v-0.1c1.2-0.5,1.9-1.4,1.9-2.9V42.9c0-1.5-0.7-2.4-1.9-2.9v-0.1h19.8l1.8,6.7
				l-0.1,0.1c-1.6-1.5-3.2-2-5.5-2h-8.8v4.9h7.1c1.6,0,2.6-0.7,3.1-2h0.1v8.7h-0.1c-0.5-1.3-1.5-2-3.1-2h-7.1v5.4h9.3
				C187.2,59.7,188.8,59.2,190.6,57.8L190.6,57.8z"/>
			<path class="st8" d="M195.5,52.2c0-7.1,5.5-12.7,13.2-12.7c3.2,0,4.9,0.6,6.1,0.6c0.5,0,1-0.1,1.5-0.6l1.8,8.8l-0.1,0
				c-2.2-2.5-5.4-4-8.9-4c-4.7,0-8.1,3-8.1,7.8c0,4.7,3.1,7.8,7.7,7.8c2.1,0,3.9-0.6,4.9-1.2v-4.6h-2c-1.9,0-3.2,0.5-4.2,1.8
				l-0.1-0.1l1.4-5.9h11.5V50c-1.1,0.5-1.7,1.3-1.7,2.7v6.8c0,1.3,0.1,2.2,0.4,2.9c-3.4,0.7-5.5,2.5-10.5,2.5
				C200.7,64.9,195.5,59.4,195.5,52.2z"/>
			<path class="st8" d="M225.7,64.4c1.2-0.5,1.9-1.4,1.9-2.9V42.9c0-1.5-0.7-2.4-1.9-2.9v-0.1h9V40c-1.2,0.5-1.9,1.4-1.9,2.9v18.6
				c0,1.5,0.7,2.4,1.9,2.9v0.1L225.7,64.4L225.7,64.4z"/>
			<path class="st8" d="M241.2,64.4c1.2-0.5,1.9-1.4,1.9-2.9V42.9c0-1.5-0.7-2.4-1.9-2.9v-0.1h7.6l11,16.7V42.9
				c0-1.5-0.7-2.4-1.9-2.9v-0.1h8.8V40c-1.2,0.5-1.9,1.4-1.9,2.9v18.6c0,1.5,0.7,2.4,1.9,2.9v0.1h-7.6l-11-16.8v13.8
				c0,1.5,0.7,2.4,1.9,2.9v0.1L241.2,64.4L241.2,64.4z"/>
		</g>
	</g>
</g>
</svg>
