<svg xmlns="http://www.w3.org/2000/svg" width="14.025" height="14.8" viewBox="0 0 14.025 14.8">
  <g id="Group_1" data-name="Group 1" transform="translate(0.025 -1.2)">
    <path id="Path_1" data-name="Path 1" d="M7.7,1.2l.7,6.4,2.1-2.1a5.011,5.011,0,0,1,0,7A4.691,4.691,0,0,1,7,14a4.691,4.691,0,0,1-3.5-1.5,5.011,5.011,0,0,1,0-7A4.784,4.784,0,0,1,5.8,4.2L5.2,2.3A6.832,6.832,0,0,0,2,4.1,7.062,7.062,0,0,0,2,14a6.966,6.966,0,0,0,4.9,2,6.8,6.8,0,0,0,4.9-2,7.062,7.062,0,0,0,0-9.9L14,1.9Z" fill="#df9426"/>
  </g>
</svg>
