<?xml version="1.0" encoding="utf-8"?>
<!-- Generator: Adobe Illustrator 25.0.1, SVG Export Plug-In . SVG Version: 6.00 Build 0)  -->
<svg version="1.1" xmlns="http://www.w3.org/2000/svg" xmlns:xlink="http://www.w3.org/1999/xlink" x="0px" y="0px"
	 viewBox="0 0 1642.3 235.9" style="enable-background:new 0 0 1642.3 235.9;" xml:space="preserve">
<style type="text/css">
	.st0{fill:#D24342;stroke:#0B3D33;stroke-width:3;stroke-miterlimit:10;}
</style>
<g id="Back_of_Card">
</g>
<g id="Front_of_Card">
	<g>
		<path class="st0" d="M252.1,5.5c2.9,0,4.5,1.6,4.5,4.5v9c0,2.9-1.6,4.5-4.5,4.5c-14.7,0-22,12.2-21.8,28.5v174
			c0,2.9-1.6,4.5-4.5,4.5h-20.7c-2.4,0-4-0.8-5.5-2.6L57.9,64.6V184c0,16.3,7.4,28.5,22,28.5c2.9,0,4.5,1.6,4.5,4.5v9
			c0,2.9-1.6,4.5-4.5,4.5H6c-2.9,0-4.5-1.6-4.5-4.5v-9c0-2.9,1.6-4.5,4.5-4.5c14.7,0,21.8-12.2,21.8-28.5V31.1
			c-5.8-5.1-11.3-7.5-18.8-7.5c-2.9,0-4.5-1.6-4.5-4.5v-9c0-2.9,1.6-4.5,4.5-4.5h51.9c2.4,0,3.9,0.8,5.5,2.6l133.8,152.9V52
			c0-16.3-7.4-28.5-22-28.5c-2.9,0-4.5-1.6-4.5-4.5v-9c0-2.9,1.6-4.5,4.5-4.5H252.1z"/>
		<path class="st0" d="M452,184c5.9,15.3,9.5,28.5,22,28.5c2.9,0,4.5,1.6,4.5,4.5v9c0,2.9-1.6,4.5-4.5,4.5h-91.9
			c-2.9,0-4.5-1.6-4.5-4.5v-9c0-2.9,1.6-4.5,4.5-4.5c12.2,0,23.2-8.6,23.2-20.7c0-2.5-0.5-5.1-1.5-7.8l-9.3-25.3h-82.1l-8.9,25.3
			c-0.9,2.6-1.3,5.1-1.3,7.5c0,12.2,11.1,21,23.4,21c2.9,0,4.5,1.6,4.5,4.5v9c0,2.9-1.6,4.5-4.5,4.5H251c-2.9,0-4.5-1.6-4.5-4.5v-9
			c0-2.9,1.6-4.5,4.5-4.5c13.2,0,16.6-12.9,22.4-28.5L338,9.3c0.9-2.5,2.5-3.6,5.1-3.6h36.1c2.6,0,4.2,1.2,5.1,3.6L452,184z
			 M321.6,132.5h63.3l-32.3-87.8L321.6,132.5z"/>
		<path class="st0" d="M688.2,5.6c2.9,0,4.5,1.6,4.5,4.5v9c0,2.9-1.6,4.5-4.5,4.5h-2C670.9,24.3,666,36.3,666,52.1v96
			c0,55.1-26.4,86.3-85.8,86.3c-59.5,0-92.5-31.2-92.5-83.3v-99c0-15.8-5-27.7-20.2-28.5h-2c-2.9,0-4.5-1.6-4.5-4.5v-9
			c0-2.9,1.6-4.5,4.5-4.5h92.2c2.9,0,4.5,1.6,4.5,4.5v9c0,2.9-1.6,4.5-4.5,4.5h-1.8c-15.3,0.7-20.2,12.7-20.2,28.5v93.1
			c0,33.5,6.5,62.8,53.3,62.8c34.7,0,47-26.6,47-62.8V52.1c0-15.8-5-27.7-20.2-28.5h-1.8c-2.9,0-4.5-1.6-4.5-4.5v-9
			c0-2.9,1.6-4.5,4.5-4.5H688.2z"/>
		<path class="st0" d="M903.1,119c2.9,0,4.5,1.6,4.5,4.5v9c0,2.9-1.6,4.5-4.5,4.5h-2.4c-5.8,0-7.9,3-7.9,9.6v32.6
			c-1.8,4.8-6.5,12.9-10.2,17.6c-18.4,23.1-44.4,36.7-81.5,36.7c-65.5,0-108.4-48.5-108.4-113c0-49.9,24.3-118.2,110.4-118.2
			c39.9,0,81.9,18.5,91.7,62.8l0.2,1.9c0,3-1.8,5-5.2,5.9l-38.4,13.4c-1.4,0.5-2.7,0.7-3.8,0.7c-2.4,0-3.8-1.2-3.5-3.1l0.5-4.6
			l0.2-5.4c0-21.2-9.9-48.1-44.2-48.1c-42.7,0-56.9,48-56.9,81.6c0,46.4,20.4,98,65,98c15.2,0,34-4.3,34-18.3v-15.6
			c0-33.9-16.5-33.8-31.9-34.5h-2.1c-2.9,0-4.5-1.6-4.5-4.5v-9c0-2.9,1.6-4.5,4.5-4.5L903.1,119z"/>
		<path class="st0" d="M1136.9,184c0,15.8,5,27.7,20.2,28.5h1.8c2.9,0,4.5,1.6,4.5,4.5v9c0,2.9-1.6,4.5-4.5,4.5h-92.2
			c-2.9,0-4.5-1.6-4.5-4.5v-9c0-2.9,1.6-4.5,4.5-4.5h2c15.3-0.7,20.2-12.7,20.2-28.5v-56.8H986.6V184c0,15.8,5,27.7,20.2,28.5h2
			c2.9,0,4.5,1.6,4.5,4.5v9c0,2.9-1.6,4.5-4.5,4.5h-92.2c-2.9,0-4.5-1.6-4.5-4.5v-9c0-2.9,1.6-4.5,4.5-4.5h1.8
			c15.3-0.7,20.2-12.7,20.2-28.5V52.1c0-15.8-5-27.7-20.2-28.5h-1.8c-2.9,0-4.5-1.6-4.5-4.5v-9c0-2.9,1.6-4.5,4.5-4.5h92.2
			c2.9,0,4.5,1.6,4.5,4.5v9c0,2.9-1.6,4.5-4.5,4.5h-2c-15.3,0.7-20.2,12.7-20.2,28.5v51.2H1089V52.1c0-15.8-5-27.7-20.2-28.5h-2
			c-2.9,0-4.5-1.6-4.5-4.5v-9c0-2.9,1.6-4.5,4.5-4.5h92.2c2.9,0,4.5,1.6,4.5,4.5v9c0,2.9-1.6,4.5-4.5,4.5h-1.8
			c-15.3,0.7-20.2,12.7-20.2,28.5V184z"/>
		<path class="st0" d="M1400.3,47.8c0.6,0.9,0.8,1.8,0.8,2.7c0,1.5-0.9,2.7-2.5,3.7l-12.6,6.7c-0.9,0.5-1.8,0.8-2.7,0.8
			c-1.5,0-2.7-0.8-3.7-2.5l-1-1.7c-11.3-19.4-29.4-27.7-53.8-27.7h-15.4V184c0,15.8,5,27.7,20.2,28.5h2c2.9,0,4.5,1.6,4.5,4.5v9
			c0,2.9-1.6,4.5-4.5,4.5h-92.2c-2.9,0-4.5-1.6-4.5-4.5v-9c0-2.9,1.6-4.5,4.5-4.5h1.8c15.3-0.7,20.2-12.7,20.2-28.5V29.9H1247
			c-24.3,0-42.5,8.2-53.8,27.7l-1,1.7c-1,1.7-2.2,2.5-3.7,2.5c-0.8,0-1.7-0.3-2.7-0.8l-12.6-6.7c-1.6-1-2.5-2.2-2.5-3.7
			c0-0.8,0.2-1.7,0.8-2.6L1195.6,4c0.9-1.5,2.3-2.5,3.8-2.5c0.8,0,1.7,0.3,2.5,1l1.7,1.5c1.7,1.6,3.5,1.6,5.7,1.6h153.3
			c2.2,0,4,0,5.7-1.6l1.7-1.5c0.8-0.7,1.7-1,2.5-1c1.5,0,2.9,0.9,3.8,2.5L1400.3,47.8z"/>
		<path class="st0" d="M1636.3,4.8c2.9,0,4.5,1.6,4.5,4.5v9c0,2.9-1.6,4.5-4.5,4.5c-13.2,0-25.8,8.7-37.3,28.5l-46.4,79.4
			c-1.1,1.9-1.5,3.4-1.5,5.6V184c0,15.8,5,27.7,20.2,28.5h2.1c2.9,0,4.5,1.6,4.5,4.5v9c0,2.9-1.6,4.5-4.5,4.5h-92.2
			c-2.9,0-4.5-1.6-4.5-4.5v-9c0-2.9,1.6-4.5,4.5-4.5h1.8c15.3-0.7,20.2-12.7,20.2-28.5v-46c0-2.2-0.5-3.8-1.7-5.6l-54.1-81
			c-13.3-19.9-21.5-28.5-34-28.5c-2.9,0-4.5-1.6-4.5-4.5v-9c0-2.9,1.6-4.5,4.5-4.5h103.9c2.9,0,4.5,1.6,4.5,4.5v9
			c0,2.9-1.6,4.5-4.5,4.5c-10.6,0-20.8,3.9-20.8,14c0,3.9,1.5,8.7,5.1,14.5l34.9,57.3l32.5-57.3c4.5-8,6.7-14.2,6.7-18.7
			c0-6.8-4.9-9.8-13.7-9.8c-2.9,0-4.5-1.6-4.5-4.5v-9c0-2.9,1.6-4.5,4.5-4.5H1636.3z"/>
	</g>
</g>
</svg>
