<?xml version="1.0" encoding="utf-8"?>
<!-- Generator: Adobe Illustrator 25.0.1, SVG Export Plug-In . SVG Version: 6.00 Build 0)  -->
<svg version="1.1" xmlns="http://www.w3.org/2000/svg" xmlns:xlink="http://www.w3.org/1999/xlink" x="0px" y="0px"
	 viewBox="0 0 815.8 236.1" style="enable-background:new 0 0 815.8 236.1;" xml:space="preserve">
<style type="text/css">
	.st0{fill:#0B3D33;stroke:#C1893F;stroke-width:3;stroke-miterlimit:10;}
</style>
<g id="Back_of_Card">
</g>
<g id="Front_of_Card">
	<g>
		<path class="st0" d="M252.1,5.4c2.9,0,4.5,1.6,4.5,4.5v9c0,2.9-1.6,4.5-4.5,4.5c-14.7,0-22,12.2-21.8,28.5v174
			c0,2.9-1.6,4.5-4.5,4.5h-20.7c-2.4,0-4-0.8-5.5-2.6L57.9,64.5v119.3c0,16.3,7.4,28.5,22,28.5c2.9,0,4.5,1.6,4.5,4.5v9
			c0,2.9-1.6,4.5-4.5,4.5H6c-2.9,0-4.5-1.6-4.5-4.5v-9c0-2.9,1.6-4.5,4.5-4.5c14.7,0,21.8-12.2,21.8-28.5V31
			c-5.8-5.1-11.3-7.5-18.8-7.5c-2.9,0-4.5-1.6-4.5-4.5v-9c0-2.9,1.6-4.5,4.5-4.5h51.9c2.4,0,3.9,0.8,5.5,2.6L200.2,161V51.9
			c0-16.3-7.4-28.5-22-28.5c-2.9,0-4.5-1.6-4.5-4.5v-9c0-2.9,1.6-4.5,4.5-4.5H252.1z"/>
		<path class="st0" d="M344.8,183.9c0,15.8,5,27.7,20.2,28.5h1.8c2.9,0,4.5,1.6,4.5,4.5v9c0,2.9-1.6,4.5-4.5,4.5h-92.2
			c-2.9,0-4.5-1.6-4.5-4.5v-9c0-2.9,1.6-4.5,4.5-4.5h2c15.3-0.7,20.2-12.7,20.2-28.5V52c0-15.8-5-27.7-20.2-28.5h-2
			c-2.9,0-4.5-1.6-4.5-4.5v-9c0-2.9,1.6-4.5,4.5-4.5h92.2c2.9,0,4.5,1.6,4.5,4.5v9c0,2.9-1.6,4.5-4.5,4.5h-1.8
			c-15.3,0.7-20.2,12.7-20.2,28.5V183.9z"/>
		<path class="st0" d="M588.6,158.5c2.7,1.3,5,2.4,3.5,6.1c-12.8,31.2-42.4,68.8-100.2,68.8c-72.2,0-111.6-48.5-111.6-113
			c0-49.9,24.3-118.2,110.4-118.2c39.9,0,81.9,18.5,91.6,62.8l0.2,1.9c0,3-1.8,5-5.2,5.9L539,86.1c-1.4,0.5-2.7,0.7-3.8,0.7
			c-2.4,0-3.8-1.2-3.5-3.1l0.5-4.6l0.2-5.4c0-21.2-9.9-48.1-44.2-48.1c-42.7,0-56.9,48-56.9,81.6c0,58.1,20.4,98,65,98
			c44.6,0,63-27.2,72.6-48.8c1.2-2.6,3-4,5.1-4c1.2,0,2.5,0.4,3.8,1.2L588.6,158.5z"/>
		<path class="st0" d="M811.8,166.3c1.7,1,2.5,2.2,2.5,3.7c0,0.8-0.3,1.7-0.8,2.6L785.4,232c-0.8,1.7-2.1,2.7-3.6,2.7
			c-0.9,0-1.8-0.4-2.7-1.2l-1.7-1.5c-1.7-1.5-3.5-1.5-5.7-1.5H607.5c-2.9,0-4.5-1.6-4.5-4.5v-9c0-2.9,1.6-4.5,4.5-4.5h0.3
			c16.5,0,21.8-12.2,21.8-28.5V52.2c0-16.3-5.3-28.5-21.8-28.5h-0.3c-2.9,0-4.5-1.6-4.5-4.5v-9c0-2.9,1.6-4.6,4.5-4.6h150.2
			c2.2,0,4,0,5.7-1.6l1.7-1.5c0.8-0.7,1.7-1,2.6-1c1.5,0,2.8,0.9,3.8,2.5l23.9,40.9c0.6,0.9,0.8,1.8,0.8,2.7c0,1.5-0.9,2.7-2.5,3.7
			l-12.6,6.7c-0.9,0.5-1.8,0.8-2.7,0.8c-1.5,0-2.7-0.8-3.7-2.5l-1-1.7c-11.3-19.4-23.4-27.7-47.8-27.7h-50.4v70.3h28
			c15.8,0,27.7-5,28.5-20.2V75c0-2.9,1.6-4.5,4.5-4.5h9c2.9,0,4.5,1.6,4.5,4.5v68.2c0,2.9-1.6,4.5-4.5,4.5h-9
			c-2.9,0-4.5-1.6-4.5-4.5v-1.8c-0.8-15.2-12.7-20.2-28.5-20.2h-26.2v59.5c0,15.9,5.1,28,20.7,28.5h19.4c27.3,0,51.2-2,77.4-45.1
			l1-1.7c1-1.7,2.2-2.6,3.7-2.6c0.8,0,1.7,0.3,2.6,0.8L811.8,166.3z"/>
	</g>
</g>
</svg>
