<?xml version="1.0" encoding="utf-8"?>
<!-- Generator: Adobe Illustrator 25.0.1, SVG Export Plug-In . SVG Version: 6.00 Build 0)  -->
<svg version="1.1" id="Layer_1" xmlns="http://www.w3.org/2000/svg" xmlns:xlink="http://www.w3.org/1999/xlink" x="0px" y="0px"
	 viewBox="0 0 133.3 9.2" style="enable-background:new 0 0 133.3 9.2;" xml:space="preserve">
<style type="text/css">
	.st0{opacity:0.7;}
	.st1{fill:none;stroke:#F8B246;stroke-width:2;stroke-miterlimit:10;}
	.st2{opacity:0.8;}
	.st3{opacity:0.9;}
	.st4{opacity:0.1;}
	.st5{opacity:0.3;}
	.st6{opacity:0.4;}
	.st7{opacity:0.5;}
	.st8{opacity:0.6;}
</style>
<g>
	<g class="st0">
		<polyline class="st1" points="63.2,8.5 59.3,4.6 63.2,0.7 		"/>
	</g>
	<g class="st2">
		<polyline class="st1" points="51.6,8.5 47.7,4.6 51.6,0.7 		"/>
	</g>
	<g class="st3">
		<polyline class="st1" points="40,8.5 36.1,4.6 40,0.7 		"/>
	</g>
	<g>
		<polyline class="st1" points="28.5,8.5 24.6,4.6 28.5,0.7 		"/>
	</g>
	<g>
		<polyline class="st1" points="16.9,8.5 13,4.6 16.9,0.7 		"/>
	</g>
	<g>
		<polyline class="st1" points="5.3,8.5 1.4,4.6 5.3,0.7 		"/>
	</g>
	<g class="st4">
		<polyline class="st1" points="132.6,8.5 128.7,4.6 132.6,0.7 		"/>
	</g>
	<g class="st4">
		<polyline class="st1" points="121,8.5 117.1,4.6 121,0.7 		"/>
	</g>
	<g class="st5">
		<polyline class="st1" points="109.4,8.5 105.6,4.6 109.4,0.7 		"/>
	</g>
	<g class="st6">
		<polyline class="st1" points="97.9,8.5 94,4.6 97.9,0.7 		"/>
	</g>
	<g class="st7">
		<polyline class="st1" points="86.3,8.5 82.4,4.6 86.3,0.7 		"/>
	</g>
	<g class="st8">
		<polyline class="st1" points="74.7,8.5 70.8,4.6 74.7,0.7 		"/>
	</g>
</g>
</svg>
