<svg xmlns="http://www.w3.org/2000/svg" xmlns:xlink="http://www.w3.org/1999/xlink" width="1366" zoomAndPan="magnify" viewBox="0 0 1024.5 576" height="768" preserveAspectRatio="xMidYMid meet" version="1.0"><defs><g/><clipPath id="1e78900610"><path d="M 0 12.109375 L 1021.585938 12.109375 L 1021.585938 563.390625 L 0 563.390625 Z M 0 12.109375 " clip-rule="nonzero"/></clipPath><clipPath id="61c0585393"><path d="M 112.960938 484.554688 L 147 484.554688 L 147 511.027344 L 112.960938 511.027344 Z M 112.960938 484.554688 " clip-rule="nonzero"/></clipPath><clipPath id="ecfe6bf406"><path d="M 135 484.554688 L 171 484.554688 L 171 511.027344 L 135 511.027344 Z M 135 484.554688 " clip-rule="nonzero"/></clipPath><clipPath id="14690b2450"><path d="M 159 484.554688 L 195 484.554688 L 195 511.027344 L 159 511.027344 Z M 159 484.554688 " clip-rule="nonzero"/></clipPath><clipPath id="dabf5133c6"><path d="M 189 484.554688 L 214 484.554688 L 214 511 L 189 511 Z M 189 484.554688 " clip-rule="nonzero"/></clipPath><clipPath id="06a465a448"><path d="M 185 484.554688 L 219 484.554688 L 219 511.027344 L 185 511.027344 Z M 185 484.554688 " clip-rule="nonzero"/></clipPath><clipPath id="c5dd96c7d8"><path d="M 209 484.554688 L 247 484.554688 L 247 511.027344 L 209 511.027344 Z M 209 484.554688 " clip-rule="nonzero"/></clipPath><clipPath id="0dd98d6a97"><path d="M 242 484.554688 L 269 484.554688 L 269 511 L 242 511 Z M 242 484.554688 " clip-rule="nonzero"/></clipPath><clipPath id="d469e2ced8"><path d="M 238 484.554688 L 274 484.554688 L 274 511.027344 L 238 511.027344 Z M 238 484.554688 " clip-rule="nonzero"/></clipPath><clipPath id="1d97bbf04a"><path d="M 264 484.554688 L 295.164062 484.554688 L 295.164062 511.027344 L 264 511.027344 Z M 264 484.554688 " clip-rule="nonzero"/></clipPath><clipPath id="dcf933f3d1"><path d="M 814.824219 484.554688 L 848 484.554688 L 848 511.027344 L 814.824219 511.027344 Z M 814.824219 484.554688 " clip-rule="nonzero"/></clipPath><clipPath id="20bb2e4ea0"><path d="M 840 484.554688 L 861 484.554688 L 861 511.027344 L 840 511.027344 Z M 840 484.554688 " clip-rule="nonzero"/></clipPath><clipPath id="981b0e5e2c"><path d="M 856 484.554688 L 881 484.554688 L 881 511 L 856 511 Z M 856 484.554688 " clip-rule="nonzero"/></clipPath><clipPath id="19428fe923"><path d="M 852 484.554688 L 886 484.554688 L 886 511.027344 L 852 511.027344 Z M 852 484.554688 " clip-rule="nonzero"/></clipPath><clipPath id="47363e19f9"><path d="M 881 484.554688 L 905 484.554688 L 905 511 L 881 511 Z M 881 484.554688 " clip-rule="nonzero"/></clipPath><clipPath id="b2ddcbc95f"><path d="M 876 484.554688 L 905.148438 484.554688 L 905.148438 511.027344 L 876 511.027344 Z M 876 484.554688 " clip-rule="nonzero"/></clipPath></defs><g clip-path="url(#1e78900610)"><path fill="#e2dccf" d="M 946.0625 563.664062 C 946.0625 563.664062 946.0625 563.867188 946.0625 563.867188 L 75.539062 563.867188 C 75.539062 563.867188 75.539062 563.664062 75.539062 563.664062 C 75.539062 521.789062 41.875 487.714844 0 487.304688 L 2.050781 487.304688 C 6.363281 487.304688 10.058594 483.816406 10.058594 479.300781 C 10.058594 474.988281 6.570312 471.5 2.257812 471.292969 C 6.570312 471.089844 10.058594 467.597656 10.058594 463.289062 C 10.058594 458.976562 6.570312 455.488281 2.257812 455.285156 C 6.570312 455.078125 10.058594 451.589844 10.058594 447.277344 C 10.058594 442.96875 6.570312 439.476562 2.257812 439.273438 C 6.570312 439.066406 10.058594 435.578125 10.058594 431.265625 C 10.058594 426.957031 6.570312 423.46875 2.257812 423.261719 C 6.570312 423.058594 10.058594 419.566406 10.058594 415.257812 C 10.058594 410.945312 6.570312 407.457031 2.257812 407.25 C 6.570312 407.046875 10.058594 403.558594 10.058594 399.246094 C 10.058594 394.9375 6.570312 391.445312 2.257812 391.242188 C 6.570312 391.035156 10.058594 387.546875 10.058594 383.234375 C 10.058594 378.925781 6.570312 375.4375 2.257812 375.230469 C 6.570312 375.023438 10.058594 371.535156 10.058594 367.226562 C 10.058594 362.914062 6.570312 359.425781 2.257812 359.21875 C 6.570312 359.015625 10.058594 355.523438 10.058594 351.214844 C 10.058594 346.902344 6.570312 343.414062 2.257812 343.210938 C 6.570312 343.003906 10.058594 339.515625 10.058594 335.203125 C 10.058594 330.894531 6.570312 327.402344 2.257812 327.199219 C 6.570312 326.992188 10.058594 323.503906 10.058594 319.195312 C 10.058594 314.882812 6.570312 311.394531 2.257812 311.1875 C 6.570312 310.984375 10.058594 307.492188 10.058594 303.183594 C 10.058594 298.871094 6.570312 295.382812 2.257812 295.175781 C 6.570312 294.972656 10.058594 291.484375 10.058594 287.171875 C 10.058594 282.863281 6.570312 279.371094 2.257812 279.167969 C 6.570312 278.960938 10.058594 275.472656 10.058594 271.160156 C 10.058594 266.851562 6.570312 263.363281 2.257812 263.15625 C 6.570312 262.949219 10.058594 259.460938 10.058594 255.152344 C 10.058594 250.839844 6.570312 247.351562 2.257812 247.144531 C 6.570312 246.941406 10.058594 243.449219 10.058594 239.140625 C 10.058594 234.828125 6.570312 231.339844 2.257812 231.136719 C 6.570312 230.929688 10.058594 227.441406 10.058594 223.128906 C 10.058594 218.820312 6.570312 215.328125 2.257812 215.125 C 6.570312 214.917969 10.058594 211.429688 10.058594 207.121094 C 10.058594 202.808594 6.570312 199.320312 2.257812 199.113281 C 6.570312 198.910156 10.058594 195.417969 10.058594 191.109375 C 10.058594 186.796875 6.570312 185.359375 2.257812 185.15625 C 6.570312 184.949219 10.058594 181.460938 10.058594 177.152344 C 10.058594 172.839844 6.570312 169.351562 2.257812 169.144531 C 6.570312 168.941406 10.058594 165.449219 10.058594 161.140625 C 10.058594 156.828125 6.570312 153.339844 2.257812 153.132812 C 6.570312 152.929688 10.058594 149.441406 10.058594 145.128906 C 10.058594 140.820312 6.570312 137.328125 2.257812 137.125 C 6.570312 136.917969 10.058594 133.429688 10.058594 129.117188 C 10.058594 124.808594 6.570312 121.320312 2.257812 121.113281 C 6.570312 120.90625 10.058594 117.417969 10.058594 113.109375 C 10.058594 108.796875 6.570312 105.308594 2.257812 105.101562 C 6.570312 104.898438 10.058594 101.40625 10.058594 97.097656 C 10.058594 93.402344 7.390625 90.117188 3.898438 89.296875 C 43.925781 87.039062 75.539062 53.785156 75.539062 13.144531 C 75.539062 12.734375 75.539062 12.324219 75.539062 12.117188 L 946.265625 12.117188 C 946.265625 12.527344 946.265625 12.9375 946.265625 13.144531 C 946.265625 53.992188 978.289062 87.246094 1018.519531 89.296875 C 1015.03125 90.117188 1012.363281 93.199219 1012.363281 97.097656 C 1012.363281 101.40625 1015.851562 104.898438 1020.164062 105.101562 C 1015.851562 105.308594 1012.363281 108.796875 1012.363281 113.109375 C 1012.363281 117.417969 1015.851562 120.90625 1020.164062 121.113281 C 1015.851562 121.320312 1012.363281 124.808594 1012.363281 129.117188 C 1012.363281 133.429688 1015.851562 136.917969 1020.164062 137.125 C 1015.851562 137.328125 1012.363281 140.820312 1012.363281 145.128906 C 1012.363281 149.441406 1015.851562 152.929688 1020.164062 153.132812 C 1015.851562 153.339844 1012.363281 156.828125 1012.363281 161.140625 C 1012.363281 165.449219 1015.851562 168.941406 1020.164062 169.144531 C 1015.851562 169.351562 1012.363281 172.839844 1012.363281 177.152344 C 1012.363281 181.460938 1015.851562 184.949219 1020.164062 185.15625 C 1015.851562 185.359375 1012.363281 188.851562 1012.363281 193.160156 C 1012.363281 197.472656 1015.851562 200.960938 1020.164062 201.167969 C 1015.851562 201.371094 1012.363281 204.859375 1012.363281 209.171875 C 1012.363281 213.480469 1015.851562 216.972656 1020.164062 217.175781 C 1015.851562 217.382812 1012.363281 220.871094 1012.363281 225.183594 C 1012.363281 229.492188 1015.851562 232.980469 1020.164062 233.1875 C 1015.851562 233.394531 1012.363281 236.882812 1012.363281 241.191406 C 1012.363281 245.503906 1015.851562 248.992188 1020.164062 249.199219 C 1015.851562 249.402344 1012.363281 252.894531 1012.363281 257.203125 C 1012.363281 261.515625 1015.851562 265.003906 1020.164062 265.207031 C 1015.851562 265.414062 1012.363281 268.902344 1012.363281 273.214844 C 1012.363281 277.523438 1015.851562 281.015625 1020.164062 281.21875 C 1015.851562 281.425781 1012.363281 284.914062 1012.363281 289.222656 C 1012.363281 293.535156 1015.851562 297.023438 1020.164062 297.230469 C 1015.851562 297.433594 1012.363281 300.925781 1012.363281 305.234375 C 1012.363281 309.546875 1015.851562 313.035156 1020.164062 313.242188 C 1015.851562 313.445312 1012.363281 316.933594 1012.363281 321.246094 C 1012.363281 325.554688 1015.851562 329.046875 1020.164062 329.25 C 1015.851562 329.457031 1012.363281 332.945312 1012.363281 337.257812 C 1012.363281 341.566406 1015.851562 345.054688 1020.164062 345.261719 C 1015.851562 345.46875 1012.363281 348.957031 1012.363281 353.265625 C 1012.363281 357.578125 1015.851562 361.066406 1020.164062 361.273438 C 1015.851562 361.476562 1012.363281 364.96875 1012.363281 369.277344 C 1012.363281 373.589844 1015.851562 377.078125 1020.164062 377.28125 C 1015.851562 377.488281 1012.363281 380.976562 1012.363281 385.289062 C 1012.363281 389.597656 1015.851562 393.089844 1020.164062 393.292969 C 1015.851562 393.5 1012.363281 396.988281 1012.363281 401.296875 C 1012.363281 405.609375 1015.851562 409.097656 1020.164062 409.304688 C 1015.851562 409.507812 1012.363281 413 1012.363281 417.308594 C 1012.363281 421.621094 1015.851562 425.109375 1020.164062 425.3125 C 1015.851562 425.519531 1012.363281 429.007812 1012.363281 433.320312 C 1012.363281 437.628906 1015.851562 441.121094 1020.164062 441.324219 C 1015.851562 441.53125 1012.363281 445.019531 1012.363281 449.332031 C 1012.363281 453.640625 1015.851562 457.128906 1020.164062 457.335938 C 1015.851562 457.539062 1012.363281 461.03125 1012.363281 465.339844 C 1012.363281 469.652344 1015.851562 473.140625 1020.164062 473.347656 C 1015.851562 473.550781 1012.363281 477.039062 1012.363281 481.351562 C 1012.363281 485.660156 1015.851562 489.355469 1020.367188 489.355469 L 1021.804688 489.355469 C 979.929688 487.714844 946.0625 521.789062 946.0625 563.664062 Z M 946.0625 563.664062 " fill-opacity="1" fill-rule="nonzero"/></g><path fill="#d24342" d="M 140.929688 485.171875 C 141.253906 485.171875 141.429688 485.351562 141.429688 485.675781 L 141.429688 486.6875 C 141.429688 487.011719 141.253906 487.191406 140.929688 487.191406 C 139.300781 487.191406 138.492188 488.5625 138.511719 490.390625 L 138.511719 509.917969 C 138.511719 510.242188 138.335938 510.421875 138.015625 510.421875 L 135.71875 510.421875 C 135.449219 510.421875 135.273438 510.332031 135.105469 510.128906 L 119.386719 491.804688 L 119.386719 505.203125 C 119.386719 507.035156 120.207031 508.402344 121.828125 508.402344 C 122.148438 508.402344 122.328125 508.582031 122.328125 508.90625 L 122.328125 509.917969 C 122.328125 510.242188 122.148438 510.421875 121.828125 510.421875 L 113.628906 510.421875 C 113.308594 510.421875 113.128906 510.242188 113.128906 509.917969 L 113.128906 508.90625 C 113.128906 508.582031 113.308594 508.402344 113.628906 508.402344 C 115.257812 508.402344 116.046875 507.035156 116.046875 505.203125 L 116.046875 488.042969 C 115.402344 487.472656 114.792969 487.203125 113.960938 487.203125 C 113.640625 487.203125 113.460938 487.023438 113.460938 486.699219 L 113.460938 485.6875 C 113.460938 485.363281 113.640625 485.183594 113.960938 485.183594 L 119.71875 485.183594 C 119.984375 485.183594 120.152344 485.273438 120.328125 485.476562 L 135.171875 502.632812 L 135.171875 490.390625 C 135.171875 488.5625 134.351562 487.191406 132.734375 487.191406 C 132.410156 487.191406 132.234375 487.011719 132.234375 486.6875 L 132.234375 485.675781 C 132.234375 485.351562 132.410156 485.171875 132.734375 485.171875 Z M 140.929688 485.171875 " fill-opacity="1" fill-rule="nonzero"/><g clip-path="url(#61c0585393)"><path stroke-linecap="butt" transform="matrix(0.110942, 0, 0, 0.112226, 112.962972, 484.554625)" fill="none" stroke-linejoin="miter" d="M 252.083615 5.500086 C 255.006026 5.500086 256.590466 7.101214 256.590466 9.990206 L 256.590466 19.005253 C 256.590466 21.894244 255.006026 23.495372 252.083615 23.495372 C 237.401141 23.495372 230.112719 35.712675 230.288768 52.002412 L 230.288768 226.003256 C 230.288768 228.892248 228.704328 230.493376 225.817127 230.493376 L 205.113782 230.493376 C 202.684308 230.493376 201.099869 229.692812 199.585849 227.882841 L 57.901735 64.602593 L 57.901735 183.99105 C 57.901735 200.315594 65.295787 212.498089 79.907841 212.498089 C 82.795043 212.498089 84.414692 214.099217 84.414692 216.988209 L 84.414692 226.003256 C 84.414692 228.892248 82.795043 230.493376 79.907841 230.493376 L 6.002535 230.493376 C 3.115334 230.493376 1.495684 228.892248 1.495684 226.003256 L 1.495684 216.988209 C 1.495684 214.099217 3.115334 212.498089 6.002535 212.498089 C 20.685009 212.498089 27.797382 200.315594 27.797382 183.99105 L 27.797382 31.083327 C 21.98777 26.001486 16.495046 23.599794 8.995365 23.599794 C 6.108164 23.599794 4.488515 21.998666 4.488515 19.109674 L 4.488515 10.094627 C 4.488515 7.205635 6.108164 5.604507 8.995365 5.604507 L 60.894566 5.604507 C 63.28883 5.604507 64.80285 6.405071 66.38729 8.215042 L 200.184415 161.087958 L 200.184415 52.002412 C 200.184415 35.712675 192.790363 23.495372 178.213518 23.495372 C 175.291107 23.495372 173.706668 21.894244 173.706668 19.005253 L 173.706668 9.990206 C 173.706668 7.101214 175.291107 5.500086 178.213518 5.500086 Z M 252.083615 5.500086 " stroke="#0b3d33" stroke-width="3" stroke-opacity="1" stroke-miterlimit="10"/></g><path fill="#d24342" d="M 163.109375 505.203125 C 163.761719 506.921875 164.164062 508.402344 165.550781 508.402344 C 165.871094 508.402344 166.046875 508.582031 166.046875 508.90625 L 166.046875 509.917969 C 166.046875 510.242188 165.871094 510.421875 165.550781 510.421875 L 155.355469 510.421875 C 155.03125 510.421875 154.855469 510.242188 154.855469 509.917969 L 154.855469 508.90625 C 154.855469 508.582031 155.03125 508.402344 155.355469 508.402344 C 156.707031 508.402344 157.929688 507.4375 157.929688 506.078125 C 157.929688 505.800781 157.871094 505.507812 157.761719 505.203125 L 156.730469 502.363281 L 147.621094 502.363281 L 146.632812 505.203125 C 146.535156 505.496094 146.488281 505.777344 146.488281 506.046875 C 146.488281 507.414062 147.722656 508.402344 149.085938 508.402344 C 149.40625 508.402344 149.585938 508.582031 149.585938 508.90625 L 149.585938 509.917969 C 149.585938 510.242188 149.40625 510.421875 149.085938 510.421875 L 140.808594 510.421875 C 140.488281 510.421875 140.308594 510.242188 140.308594 509.917969 L 140.308594 508.90625 C 140.308594 508.582031 140.488281 508.402344 140.808594 508.402344 C 142.273438 508.402344 142.652344 506.953125 143.292969 505.203125 L 150.460938 485.597656 C 150.5625 485.316406 150.738281 485.195312 151.027344 485.195312 L 155.03125 485.195312 C 155.320312 485.195312 155.5 485.328125 155.597656 485.597656 Z M 148.640625 499.425781 L 155.664062 499.425781 L 152.082031 489.570312 Z M 148.640625 499.425781 " fill-opacity="1" fill-rule="nonzero"/><g clip-path="url(#ecfe6bf406)"><path stroke-linecap="butt" transform="matrix(0.110942, 0, 0, 0.112226, 112.962972, 484.554625)" fill="none" stroke-linejoin="miter" d="M 452.004687 183.99105 C 457.884719 199.306187 461.511325 212.498089 474.010793 212.498089 C 476.897995 212.498089 478.482434 214.099217 478.482434 216.988209 L 478.482434 226.003256 C 478.482434 228.892248 476.897995 230.493376 474.010793 230.493376 L 382.113295 230.493376 C 379.190884 230.493376 377.606444 228.892248 377.606444 226.003256 L 377.606444 216.988209 C 377.606444 214.099217 379.190884 212.498089 382.113295 212.498089 C 394.295875 212.498089 405.316533 203.900728 405.316533 191.787847 C 405.316533 189.316541 404.788386 186.706006 403.802513 183.99105 L 394.507133 158.686266 L 312.397951 158.686266 L 303.489879 183.99105 C 302.609635 186.601585 302.187117 189.107698 302.187117 191.50939 C 302.187117 203.691885 313.313405 212.498089 325.601614 212.498089 C 328.488815 212.498089 330.108465 214.099217 330.108465 216.988209 L 330.108465 226.003256 C 330.108465 228.892248 328.488815 230.493376 325.601614 230.493376 L 250.992112 230.493376 C 248.104911 230.493376 246.485262 228.892248 246.485262 226.003256 L 246.485262 216.988209 C 246.485262 214.099217 248.104911 212.498089 250.992112 212.498089 C 264.195776 212.498089 267.611124 199.584644 273.385526 183.99105 L 337.995453 9.294063 C 338.910907 6.78795 340.495347 5.708929 343.10087 5.708929 L 379.190884 5.708929 C 381.796407 5.708929 383.416056 6.892371 384.2963 9.294063 Z M 321.5877 132.511304 L 384.894866 132.511304 L 352.607508 44.692915 Z M 321.5877 132.511304 " stroke="#0b3d33" stroke-width="3" stroke-opacity="1" stroke-miterlimit="10"/></g><path fill="#d24342" d="M 189.3125 485.183594 C 189.636719 485.183594 189.8125 485.363281 189.8125 485.6875 L 189.8125 486.699219 C 189.8125 487.023438 189.636719 487.203125 189.3125 487.203125 L 189.089844 487.203125 C 187.394531 487.28125 186.851562 488.628906 186.851562 490.402344 L 186.851562 501.175781 C 186.851562 507.359375 183.921875 510.859375 177.332031 510.859375 C 170.730469 510.859375 167.070312 507.359375 167.070312 501.511719 L 167.070312 490.402344 C 167.070312 488.628906 166.515625 487.292969 164.828125 487.203125 L 164.605469 487.203125 C 164.285156 487.203125 164.105469 487.023438 164.105469 486.699219 L 164.105469 485.6875 C 164.105469 485.363281 164.285156 485.183594 164.605469 485.183594 L 174.835938 485.183594 C 175.15625 485.183594 175.335938 485.363281 175.335938 485.6875 L 175.335938 486.699219 C 175.335938 487.023438 175.15625 487.203125 174.835938 487.203125 L 174.636719 487.203125 C 172.9375 487.28125 172.394531 488.628906 172.394531 490.402344 L 172.394531 500.851562 C 172.394531 504.609375 173.117188 507.898438 178.308594 507.898438 C 182.15625 507.898438 183.523438 504.914062 183.523438 500.851562 L 183.523438 490.402344 C 183.523438 488.628906 182.96875 487.292969 181.28125 487.203125 L 181.082031 487.203125 C 180.757812 487.203125 180.582031 487.023438 180.582031 486.699219 L 180.582031 485.6875 C 180.582031 485.363281 180.757812 485.183594 181.082031 485.183594 Z M 189.3125 485.183594 " fill-opacity="1" fill-rule="nonzero"/><g clip-path="url(#14690b2450)"><path stroke-linecap="butt" transform="matrix(0.110942, 0, 0, 0.112226, 112.962972, 484.554625)" fill="none" stroke-linejoin="miter" d="M 688.191822 5.604507 C 691.114233 5.604507 692.698673 7.205635 692.698673 10.094627 L 692.698673 19.109674 C 692.698673 21.998666 691.114233 23.599794 688.191822 23.599794 L 686.184866 23.599794 C 670.903825 24.295936 666.009667 36.304396 666.009667 52.106833 L 666.009667 148.104899 C 666.009667 203.204586 639.60234 234.391774 580.203459 234.391774 C 520.698948 234.391774 487.707394 203.204586 487.707394 151.098312 L 487.707394 52.106833 C 487.707394 36.304396 482.707607 24.400358 467.496986 23.599794 L 465.490029 23.599794 C 462.602828 23.599794 460.983179 21.998666 460.983179 19.109674 L 460.983179 10.094627 C 460.983179 7.205635 462.602828 5.604507 465.490029 5.604507 L 557.704416 5.604507 C 560.591617 5.604507 562.211266 7.205635 562.211266 10.094627 L 562.211266 19.109674 C 562.211266 21.998666 560.591617 23.599794 557.704416 23.599794 L 555.908718 23.599794 C 540.592468 24.295936 535.69831 36.304396 535.69831 52.106833 L 535.69831 145.215907 C 535.69831 178.700366 542.212117 208.00797 589.005901 208.00797 C 623.687524 208.00797 636.010944 181.415322 636.010944 145.215907 L 636.010944 52.106833 C 636.010944 36.304396 631.011156 24.400358 615.800536 23.599794 L 614.004838 23.599794 C 611.082427 23.599794 609.497987 21.998666 609.497987 19.109674 L 609.497987 10.094627 C 609.497987 7.205635 611.082427 5.604507 614.004838 5.604507 Z M 688.191822 5.604507 " stroke="#0b3d33" stroke-width="3" stroke-opacity="1" stroke-miterlimit="10"/></g><g clip-path="url(#dabf5133c6)"><path fill="#d24342" d="M 213.15625 497.910156 C 213.476562 497.910156 213.652344 498.089844 213.652344 498.414062 L 213.652344 499.425781 C 213.652344 499.75 213.476562 499.929688 213.15625 499.929688 L 212.886719 499.929688 C 212.246094 499.929688 212.011719 500.265625 212.011719 501.007812 L 212.011719 504.664062 C 211.8125 505.203125 211.292969 506.113281 210.878906 506.640625 C 208.839844 509.234375 205.953125 510.757812 201.839844 510.757812 C 194.570312 510.757812 189.8125 505.316406 189.8125 498.078125 C 189.8125 492.476562 192.507812 484.8125 202.0625 484.8125 C 206.488281 484.8125 211.148438 486.890625 212.234375 491.859375 L 212.257812 492.074219 C 212.257812 492.410156 212.054688 492.636719 211.679688 492.734375 L 207.417969 494.238281 C 207.265625 494.296875 207.121094 494.316406 206.996094 494.316406 C 206.730469 494.316406 206.574219 494.183594 206.609375 493.96875 L 206.664062 493.453125 L 206.6875 492.847656 C 206.6875 490.46875 205.589844 487.449219 201.785156 487.449219 C 197.046875 487.449219 195.46875 492.835938 195.46875 496.609375 C 195.46875 501.816406 197.734375 507.605469 202.683594 507.605469 C 204.367188 507.605469 206.453125 507.125 206.453125 505.550781 L 206.453125 503.800781 C 206.453125 499.996094 204.625 500.007812 202.914062 499.929688 L 202.683594 499.929688 C 202.359375 499.929688 202.183594 499.75 202.183594 499.425781 L 202.183594 498.414062 C 202.183594 498.089844 202.359375 497.910156 202.683594 497.910156 Z M 213.15625 497.910156 " fill-opacity="1" fill-rule="nonzero"/></g><g clip-path="url(#06a465a448)"><path stroke-linecap="butt" transform="matrix(0.110942, 0, 0, 0.112226, 112.962972, 484.554625)" fill="none" stroke-linejoin="miter" d="M 903.112257 119.006138 C 905.999458 119.006138 907.583897 120.607266 907.583897 123.496257 L 907.583897 132.511304 C 907.583897 135.400296 905.999458 137.001424 903.112257 137.001424 L 900.682782 137.001424 C 894.90838 137.001424 892.795794 139.994837 892.795794 146.608192 L 892.795794 179.187666 C 891.000096 183.99105 886.317196 192.101111 882.584961 196.800074 C 864.205461 219.912008 838.185441 233.486789 801.109554 233.486789 C 735.584172 233.486789 692.698673 185.000457 692.698673 120.502844 C 692.698673 70.58942 716.993414 2.29783 803.116511 2.29783 C 843.00918 2.29783 885.014435 20.815223 894.802751 65.089893 L 895.014009 67.004285 C 895.014009 69.997698 893.183101 72.016512 889.802964 72.88669 L 851.389105 86.287435 C 850.015924 86.809542 848.713162 86.983578 847.58645 86.983578 C 845.192185 86.983578 843.783795 85.800135 844.100683 83.885743 L 844.593619 79.291202 L 844.804878 73.896097 C 844.804878 52.698555 834.910933 25.792643 800.616617 25.792643 C 757.907166 25.792643 743.682419 73.791676 743.682419 107.415363 C 743.682419 153.813268 764.104086 205.397435 808.714864 205.397435 C 823.890275 205.397435 842.692292 201.116158 842.692292 187.088884 L 842.692292 171.49529 C 842.692292 137.593145 826.21412 137.697567 810.79224 137.001424 L 808.714864 137.001424 C 805.792453 137.001424 804.208013 135.400296 804.208013 132.511304 L 804.208013 123.496257 C 804.208013 120.607266 805.792453 119.006138 808.714864 119.006138 Z M 903.112257 119.006138 " stroke="#0b3d33" stroke-width="3" stroke-opacity="1" stroke-miterlimit="10"/></g><path fill="#d24342" d="M 239.09375 505.203125 C 239.09375 506.976562 239.648438 508.3125 241.335938 508.402344 L 241.535156 508.402344 C 241.855469 508.402344 242.03125 508.582031 242.03125 508.90625 L 242.03125 509.917969 C 242.03125 510.242188 241.855469 510.421875 241.535156 510.421875 L 231.304688 510.421875 C 230.984375 510.421875 230.804688 510.242188 230.804688 509.917969 L 230.804688 508.90625 C 230.804688 508.582031 230.984375 508.402344 231.304688 508.402344 L 231.527344 508.402344 C 233.222656 508.324219 233.769531 506.976562 233.769531 505.203125 L 233.769531 498.828125 L 222.417969 498.828125 L 222.417969 505.203125 C 222.417969 506.976562 222.972656 508.3125 224.660156 508.402344 L 224.882812 508.402344 C 225.203125 508.402344 225.378906 508.582031 225.378906 508.90625 L 225.378906 509.917969 C 225.378906 510.242188 225.203125 510.421875 224.882812 510.421875 L 214.652344 510.421875 C 214.332031 510.421875 214.152344 510.242188 214.152344 509.917969 L 214.152344 508.90625 C 214.152344 508.582031 214.332031 508.402344 214.652344 508.402344 L 214.851562 508.402344 C 216.550781 508.324219 217.09375 506.976562 217.09375 505.203125 L 217.09375 490.402344 C 217.09375 488.628906 216.539062 487.292969 214.851562 487.203125 L 214.652344 487.203125 C 214.332031 487.203125 214.152344 487.023438 214.152344 486.699219 L 214.152344 485.6875 C 214.152344 485.363281 214.332031 485.183594 214.652344 485.183594 L 224.882812 485.183594 C 225.203125 485.183594 225.378906 485.363281 225.378906 485.6875 L 225.378906 486.699219 C 225.378906 487.023438 225.203125 487.203125 224.882812 487.203125 L 224.660156 487.203125 C 222.960938 487.28125 222.417969 488.628906 222.417969 490.402344 L 222.417969 496.148438 L 233.777344 496.148438 L 233.777344 490.402344 C 233.777344 488.628906 233.222656 487.292969 231.539062 487.203125 L 231.316406 487.203125 C 230.996094 487.203125 230.816406 487.023438 230.816406 486.699219 L 230.816406 485.6875 C 230.816406 485.363281 230.996094 485.183594 231.316406 485.183594 L 241.546875 485.183594 C 241.867188 485.183594 242.042969 485.363281 242.042969 485.6875 L 242.042969 486.699219 C 242.042969 487.023438 241.867188 487.203125 241.546875 487.203125 L 241.34375 487.203125 C 239.648438 487.28125 239.105469 488.628906 239.105469 490.402344 L 239.105469 505.203125 Z M 239.09375 505.203125 " fill-opacity="1" fill-rule="nonzero"/><g clip-path="url(#c5dd96c7d8)"><path stroke-linecap="butt" transform="matrix(0.110942, 0, 0, 0.112226, 112.962972, 484.554625)" fill="none" stroke-linejoin="miter" d="M 1136.905127 183.99105 C 1136.905127 199.793487 1141.904914 211.697525 1157.115535 212.498089 L 1158.911233 212.498089 C 1161.798434 212.498089 1163.382874 214.099217 1163.382874 216.988209 L 1163.382874 226.003256 C 1163.382874 228.892248 1161.798434 230.493376 1158.911233 230.493376 L 1066.696846 230.493376 C 1063.809645 230.493376 1062.189996 228.892248 1062.189996 226.003256 L 1062.189996 216.988209 C 1062.189996 214.099217 1063.809645 212.498089 1066.696846 212.498089 L 1068.703803 212.498089 C 1083.984843 211.801947 1088.914211 199.793487 1088.914211 183.99105 L 1088.914211 127.185813 L 986.59462 127.185813 L 986.59462 183.99105 C 986.59462 199.793487 991.594408 211.697525 1006.805028 212.498089 L 1008.811985 212.498089 C 1011.699186 212.498089 1013.283626 214.099217 1013.283626 216.988209 L 1013.283626 226.003256 C 1013.283626 228.892248 1011.699186 230.493376 1008.811985 230.493376 L 916.597598 230.493376 C 913.710397 230.493376 912.090748 228.892248 912.090748 226.003256 L 912.090748 216.988209 C 912.090748 214.099217 913.710397 212.498089 916.597598 212.498089 L 918.393297 212.498089 C 933.709546 211.801947 938.603704 199.793487 938.603704 183.99105 L 938.603704 52.106833 C 938.603704 36.304396 933.603917 24.400358 918.393297 23.599794 L 916.597598 23.599794 C 913.710397 23.599794 912.090748 21.998666 912.090748 19.109674 L 912.090748 10.094627 C 912.090748 7.205635 913.710397 5.604507 916.597598 5.604507 L 1008.811985 5.604507 C 1011.699186 5.604507 1013.283626 7.205635 1013.283626 10.094627 L 1013.283626 19.109674 C 1013.283626 21.998666 1011.699186 23.599794 1008.811985 23.599794 L 1006.805028 23.599794 C 991.488778 24.295936 986.59462 36.304396 986.59462 52.106833 L 986.59462 103.308122 L 1088.984631 103.308122 L 1088.984631 52.106833 C 1088.984631 36.304396 1083.984843 24.400358 1068.809433 23.599794 L 1066.802476 23.599794 C 1063.915275 23.599794 1062.295625 21.998666 1062.295625 19.109674 L 1062.295625 10.094627 C 1062.295625 7.205635 1063.915275 5.604507 1066.802476 5.604507 L 1159.016863 5.604507 C 1161.904064 5.604507 1163.488503 7.205635 1163.488503 10.094627 L 1163.488503 19.109674 C 1163.488503 21.998666 1161.904064 23.599794 1159.016863 23.599794 L 1157.185955 23.599794 C 1141.904914 24.295936 1137.010756 36.304396 1137.010756 52.106833 L 1137.010756 183.99105 Z M 1136.905127 183.99105 " stroke="#0b3d33" stroke-width="3" stroke-opacity="1" stroke-miterlimit="10"/></g><g clip-path="url(#0dd98d6a97)"><path fill="#d24342" d="M 268.316406 489.917969 C 268.382812 490.019531 268.402344 490.121094 268.402344 490.222656 C 268.402344 490.390625 268.304688 490.523438 268.125 490.636719 L 266.730469 491.390625 C 266.628906 491.445312 266.527344 491.480469 266.429688 491.480469 C 266.261719 491.480469 266.128906 491.390625 266.019531 491.199219 L 265.90625 491.007812 C 264.652344 488.832031 262.644531 487.898438 259.9375 487.898438 L 258.230469 487.898438 L 258.230469 505.203125 C 258.230469 506.976562 258.785156 508.3125 260.472656 508.402344 L 260.695312 508.402344 C 261.015625 508.402344 261.191406 508.582031 261.191406 508.90625 L 261.191406 509.917969 C 261.191406 510.242188 261.015625 510.421875 260.695312 510.421875 L 250.464844 510.421875 C 250.144531 510.421875 249.964844 510.242188 249.964844 509.917969 L 249.964844 508.90625 C 249.964844 508.582031 250.144531 508.402344 250.464844 508.402344 L 250.664062 508.402344 C 252.363281 508.324219 252.90625 506.976562 252.90625 505.203125 L 252.90625 487.910156 L 251.308594 487.910156 C 248.613281 487.910156 246.59375 488.832031 245.339844 491.019531 L 245.226562 491.210938 C 245.117188 491.398438 244.984375 491.488281 244.816406 491.488281 C 244.730469 491.488281 244.628906 491.457031 244.519531 491.398438 L 243.121094 490.648438 C 242.941406 490.535156 242.84375 490.402344 242.84375 490.234375 C 242.84375 490.144531 242.863281 490.042969 242.933594 489.941406 L 245.605469 485.003906 C 245.707031 484.835938 245.859375 484.722656 246.027344 484.722656 C 246.117188 484.722656 246.214844 484.757812 246.304688 484.835938 L 246.492188 485.003906 C 246.679688 485.183594 246.882812 485.183594 247.125 485.183594 L 264.132812 485.183594 C 264.375 485.183594 264.578125 485.183594 264.765625 485.003906 L 264.953125 484.835938 C 265.042969 484.757812 265.140625 484.722656 265.230469 484.722656 C 265.398438 484.722656 265.554688 484.824219 265.652344 485.003906 Z M 268.316406 489.917969 " fill-opacity="1" fill-rule="nonzero"/></g><g clip-path="url(#d469e2ced8)"><path stroke-linecap="butt" transform="matrix(0.110942, 0, 0, 0.112226, 112.962972, 484.554625)" fill="none" stroke-linejoin="miter" d="M 1400.309414 47.790749 C 1400.90798 48.695735 1401.084029 49.60072 1401.084029 50.505705 C 1401.084029 52.002412 1400.203785 53.185854 1398.584135 54.195261 L 1386.014248 60.913037 C 1385.098794 61.400337 1384.18334 61.713601 1383.303095 61.713601 C 1381.789075 61.713601 1380.591943 60.913037 1379.60607 59.207488 L 1378.584986 57.501939 C 1367.28265 38.114367 1349.184829 29.795463 1324.784458 29.795463 L 1309.397789 29.795463 L 1309.397789 183.99105 C 1309.397789 199.793487 1314.397576 211.697525 1329.608197 212.498089 L 1331.615153 212.498089 C 1334.502355 212.498089 1336.086794 214.099217 1336.086794 216.988209 L 1336.086794 226.003256 C 1336.086794 228.892248 1334.502355 230.493376 1331.615153 230.493376 L 1239.400767 230.493376 C 1236.513566 230.493376 1234.893916 228.892248 1234.893916 226.003256 L 1234.893916 216.988209 C 1234.893916 214.099217 1236.513566 212.498089 1239.400767 212.498089 L 1241.196465 212.498089 C 1256.512715 211.801947 1261.406873 199.793487 1261.406873 183.99105 L 1261.406873 29.899884 L 1247.006077 29.899884 C 1222.711336 29.899884 1204.507885 38.114367 1193.205549 57.60636 L 1192.184466 59.311909 C 1191.198592 60.982652 1190.00146 61.783216 1188.48744 61.783216 C 1187.712825 61.783216 1186.797371 61.504759 1185.811497 60.982652 L 1173.2064 54.299683 C 1171.58675 53.290276 1170.706506 52.106833 1170.706506 50.610127 C 1170.706506 49.809563 1170.882555 48.904577 1171.516331 47.999592 L 1195.599813 4.003379 C 1196.515267 2.506673 1197.888448 1.497266 1199.402468 1.497266 C 1200.212293 1.497266 1201.092537 1.81053 1201.902362 2.506673 L 1203.592431 4.003379 C 1205.2825 5.604507 1207.113408 5.604507 1209.296414 5.604507 L 1362.599751 5.604507 C 1364.782757 5.604507 1366.613665 5.604507 1368.303733 4.003379 L 1369.993802 2.506673 C 1370.803627 1.81053 1371.683871 1.497266 1372.493696 1.497266 C 1374.007716 1.497266 1375.416107 2.402252 1376.296351 4.003379 Z M 1400.309414 47.790749 " stroke="#0b3d33" stroke-width="3" stroke-opacity="1" stroke-miterlimit="10"/></g><path fill="#d24342" d="M 294.496094 485.09375 C 294.820312 485.09375 294.996094 485.273438 294.996094 485.597656 L 294.996094 486.609375 C 294.996094 486.933594 294.820312 487.113281 294.496094 487.113281 C 293.035156 487.113281 291.636719 488.089844 290.359375 490.3125 L 285.210938 499.222656 C 285.089844 499.4375 285.046875 499.605469 285.046875 499.851562 L 285.046875 505.203125 C 285.046875 506.976562 285.601562 508.3125 287.285156 508.402344 L 287.519531 508.402344 C 287.839844 508.402344 288.019531 508.582031 288.019531 508.90625 L 288.019531 509.917969 C 288.019531 510.242188 287.839844 510.421875 287.519531 510.421875 L 277.289062 510.421875 C 276.96875 510.421875 276.792969 510.242188 276.792969 509.917969 L 276.792969 508.90625 C 276.792969 508.582031 276.96875 508.402344 277.289062 508.402344 L 277.492188 508.402344 C 279.1875 508.324219 279.730469 506.976562 279.730469 505.203125 L 279.730469 500.042969 C 279.730469 499.792969 279.675781 499.617188 279.542969 499.414062 L 273.539062 490.324219 C 272.066406 488.089844 271.15625 487.125 269.769531 487.125 C 269.445312 487.125 269.269531 486.945312 269.269531 486.621094 L 269.269531 485.609375 C 269.269531 485.285156 269.445312 485.105469 269.769531 485.105469 L 281.296875 485.105469 C 281.617188 485.105469 281.792969 485.285156 281.792969 485.609375 L 281.792969 486.621094 C 281.792969 486.945312 281.617188 487.125 281.296875 487.125 C 280.121094 487.125 278.988281 487.5625 278.988281 488.695312 C 278.988281 489.132812 279.15625 489.671875 279.554688 490.324219 L 283.425781 496.753906 L 287.03125 490.324219 C 287.53125 489.425781 287.773438 488.730469 287.773438 488.222656 C 287.773438 487.460938 287.230469 487.125 286.253906 487.125 C 285.933594 487.125 285.753906 486.945312 285.753906 486.621094 L 285.753906 485.609375 C 285.753906 485.285156 285.933594 485.105469 286.253906 485.105469 L 294.496094 485.105469 Z M 294.496094 485.09375 " fill-opacity="1" fill-rule="nonzero"/><g clip-path="url(#1d97bbf04a)"><path stroke-linecap="butt" transform="matrix(0.110942, 0, 0, 0.112226, 112.962972, 484.554625)" fill="none" stroke-linejoin="miter" d="M 1636.285291 4.803943 C 1639.207701 4.803943 1640.792141 6.405071 1640.792141 9.294063 L 1640.792141 18.30911 C 1640.792141 21.198102 1639.207701 22.79923 1636.285291 22.79923 C 1623.116837 22.79923 1610.511739 31.501012 1598.998144 51.306269 L 1552.591668 130.701333 C 1551.500165 132.615726 1551.112858 134.112432 1551.112858 136.305281 L 1551.112858 183.99105 C 1551.112858 199.793487 1556.112645 211.697525 1571.288056 212.498089 L 1573.400642 212.498089 C 1576.287843 212.498089 1577.907492 214.099217 1577.907492 216.988209 L 1577.907492 226.003256 C 1577.907492 228.892248 1576.287843 230.493376 1573.400642 230.493376 L 1481.186255 230.493376 C 1478.299054 230.493376 1476.714614 228.892248 1476.714614 226.003256 L 1476.714614 216.988209 C 1476.714614 214.099217 1478.299054 212.498089 1481.186255 212.498089 L 1483.017163 212.498089 C 1498.298203 211.801947 1503.192361 199.793487 1503.192361 183.99105 L 1503.192361 138.010831 C 1503.192361 135.783174 1502.699424 134.216854 1501.502292 132.406883 L 1447.384876 51.410691 C 1434.110793 31.501012 1425.906917 22.903651 1413.407448 22.903651 C 1410.485038 22.903651 1408.900598 21.302523 1408.900598 18.413531 L 1408.900598 9.398485 C 1408.900598 6.509493 1410.485038 4.908365 1413.407448 4.908365 L 1517.311479 4.908365 C 1520.19868 4.908365 1521.78312 6.509493 1521.78312 9.398485 L 1521.78312 18.413531 C 1521.78312 21.302523 1520.19868 22.903651 1517.311479 22.903651 C 1506.713338 22.903651 1496.502505 26.80205 1496.502505 36.896118 C 1496.502505 40.794516 1498.016525 45.5979 1501.607921 51.410691 L 1536.500803 108.703227 L 1568.999421 51.410691 C 1573.506271 43.405051 1575.689277 37.209382 1575.689277 32.684455 C 1575.689277 25.897064 1570.795119 22.903651 1561.992676 22.903651 C 1559.105475 22.903651 1557.485826 21.302523 1557.485826 18.413531 L 1557.485826 9.398485 C 1557.485826 6.509493 1559.105475 4.908365 1561.992676 4.908365 L 1636.285291 4.908365 Z M 1636.285291 4.803943 " stroke="#0b3d33" stroke-width="3" stroke-opacity="1" stroke-miterlimit="10"/></g><path fill="#0b3d33" d="M 842.789062 485.160156 C 843.109375 485.160156 843.285156 485.339844 843.285156 485.664062 L 843.285156 486.675781 C 843.285156 487 843.109375 487.179688 842.789062 487.179688 C 841.167969 487.179688 840.359375 488.546875 840.382812 490.375 L 840.382812 509.886719 C 840.382812 510.210938 840.207031 510.390625 839.886719 510.390625 L 837.601562 510.390625 C 837.335938 510.390625 837.160156 510.300781 836.996094 510.097656 L 821.351562 491.785156 L 821.351562 505.164062 C 821.351562 506.992188 822.167969 508.359375 823.78125 508.359375 C 824.101562 508.359375 824.277344 508.539062 824.277344 508.863281 L 824.277344 509.875 C 824.277344 510.199219 824.101562 510.378906 823.78125 510.378906 L 815.625 510.378906 C 815.304688 510.378906 815.125 510.199219 815.125 509.875 L 815.125 508.863281 C 815.125 508.539062 815.304688 508.359375 815.625 508.359375 C 817.246094 508.359375 818.03125 506.992188 818.03125 505.164062 L 818.03125 488.03125 C 817.390625 487.457031 816.78125 487.191406 815.953125 487.191406 C 815.632812 487.191406 815.457031 487.011719 815.457031 486.683594 L 815.457031 485.675781 C 815.457031 485.351562 815.632812 485.171875 815.953125 485.171875 L 821.683594 485.171875 C 821.949219 485.171875 822.113281 485.261719 822.289062 485.460938 L 837.058594 502.609375 L 837.058594 490.375 C 837.058594 488.546875 836.242188 487.179688 834.632812 487.179688 C 834.3125 487.179688 834.136719 487 834.136719 486.675781 L 834.136719 485.664062 C 834.136719 485.339844 834.3125 485.160156 834.632812 485.160156 Z M 842.789062 485.160156 " fill-opacity="1" fill-rule="nonzero"/><g clip-path="url(#dcf933f3d1)"><path stroke-linecap="butt" transform="matrix(0.110386, 0, 0, 0.11213, 814.961166, 484.554625)" fill="none" stroke-linejoin="miter" d="M 252.095825 5.40024 C 254.99757 5.40024 256.589991 7.002725 256.589991 9.894167 L 256.589991 18.916857 C 256.589991 21.808299 254.99757 23.410784 252.095825 23.410784 C 237.410168 23.410784 230.085032 35.603609 230.297355 51.907158 L 230.297355 225.91619 C 230.297355 228.807632 228.704934 230.410117 225.80319 230.410117 L 205.10172 230.410117 C 202.695396 230.410117 201.102975 229.608875 199.616716 227.797369 L 57.891271 64.483186 L 57.891271 183.798689 C 57.891271 200.102238 65.28718 212.295063 79.902064 212.295063 C 82.803808 212.295063 84.396229 213.897549 84.396229 216.78899 L 84.396229 225.811681 C 84.396229 228.703122 82.803808 230.305607 79.902064 230.305607 L 6.013742 230.305607 C 3.111997 230.305607 1.48419 228.703122 1.48419 225.811681 L 1.48419 216.78899 C 1.48419 213.897549 3.111997 212.295063 6.013742 212.295063 C 20.6994 212.295063 27.812212 200.102238 27.812212 183.798689 L 27.812212 31.005172 C 22.008723 25.884186 16.488332 23.515294 8.986261 23.515294 C 6.084516 23.515294 4.492095 21.912808 4.492095 18.98653 L 4.492095 9.998677 C 4.492095 7.107235 6.084516 5.50475 8.986261 5.50475 L 60.899176 5.50475 C 63.305501 5.50475 64.79176 6.305992 66.384181 8.082661 L 200.18291 161.015524 L 200.18291 51.907158 C 200.18291 35.603609 192.787 23.410784 178.207504 23.410784 C 175.305759 23.410784 173.713338 21.808299 173.713338 18.916857 L 173.713338 9.894167 C 173.713338 7.002725 175.305759 5.40024 178.207504 5.40024 Z M 252.095825 5.40024 " stroke="#c1893f" stroke-width="3" stroke-opacity="1" stroke-miterlimit="10"/></g><path fill="#0b3d33" d="M 853.023438 505.175781 C 853.023438 506.945312 853.574219 508.28125 855.253906 508.371094 L 855.449219 508.371094 C 855.769531 508.371094 855.949219 508.550781 855.949219 508.875 L 855.949219 509.886719 C 855.949219 510.210938 855.769531 510.390625 855.449219 510.390625 L 845.273438 510.390625 C 844.953125 510.390625 844.777344 510.210938 844.777344 509.886719 L 844.777344 508.875 C 844.777344 508.550781 844.953125 508.371094 845.273438 508.371094 L 845.492188 508.371094 C 847.183594 508.292969 847.722656 506.945312 847.722656 505.175781 L 847.722656 490.386719 C 847.722656 488.613281 847.171875 487.28125 845.492188 487.191406 L 845.273438 487.191406 C 844.953125 487.191406 844.777344 487.011719 844.777344 486.683594 L 844.777344 485.675781 C 844.777344 485.351562 844.953125 485.171875 845.273438 485.171875 L 855.449219 485.171875 C 855.769531 485.171875 855.949219 485.351562 855.949219 485.675781 L 855.949219 486.683594 C 855.949219 487.011719 855.769531 487.191406 855.449219 487.191406 L 855.253906 487.191406 C 853.5625 487.269531 853.023438 488.613281 853.023438 490.386719 Z M 853.023438 505.175781 " fill-opacity="1" fill-rule="nonzero"/><g clip-path="url(#20bb2e4ea0)"><path stroke-linecap="butt" transform="matrix(0.110386, 0, 0, 0.11213, 814.961166, 484.554625)" fill="none" stroke-linejoin="miter" d="M 344.810099 183.903199 C 344.810099 199.684198 349.799684 211.59833 365.016149 212.399573 L 366.785505 212.399573 C 369.68725 212.399573 371.315057 214.002058 371.315057 216.8935 L 371.315057 225.91619 C 371.315057 228.807632 369.68725 230.410117 366.785505 230.410117 L 274.602038 230.410117 C 271.700294 230.410117 270.107873 228.807632 270.107873 225.91619 L 270.107873 216.8935 C 270.107873 214.002058 271.700294 212.399573 274.602038 212.399573 L 276.583718 212.399573 C 291.906344 211.70284 296.789767 199.684198 296.789767 183.903199 L 296.789767 52.011668 C 296.789767 36.195832 291.800182 24.316537 276.583718 23.515294 L 274.602038 23.515294 C 271.700294 23.515294 270.107873 21.912808 270.107873 18.98653 L 270.107873 9.998677 C 270.107873 7.107235 271.700294 5.50475 274.602038 5.50475 L 366.785505 5.50475 C 369.68725 5.50475 371.315057 7.107235 371.315057 9.998677 L 371.315057 18.98653 C 371.315057 21.912808 369.68725 23.515294 366.785505 23.515294 L 365.016149 23.515294 C 349.693523 24.212027 344.810099 36.195832 344.810099 52.011668 Z M 344.810099 183.903199 " stroke="#c1893f" stroke-width="3" stroke-opacity="1" stroke-miterlimit="10"/></g><g clip-path="url(#981b0e5e2c)"><path fill="#0b3d33" d="M 879.933594 502.328125 C 880.234375 502.472656 880.488281 502.597656 880.320312 503.011719 C 878.90625 506.511719 875.640625 510.726562 869.261719 510.726562 C 861.289062 510.726562 856.941406 505.289062 856.941406 498.054688 C 856.941406 492.460938 859.625 484.800781 869.128906 484.800781 C 873.53125 484.800781 878.167969 486.875 879.238281 491.84375 L 879.261719 492.054688 C 879.261719 492.390625 879.0625 492.617188 878.6875 492.71875 L 874.460938 494.210938 C 874.304688 494.265625 874.160156 494.289062 874.039062 494.289062 C 873.773438 494.289062 873.621094 494.152344 873.652344 493.941406 L 873.707031 493.425781 L 873.730469 492.820312 C 873.730469 490.441406 872.636719 487.425781 868.851562 487.425781 C 864.136719 487.425781 862.570312 492.808594 862.570312 496.574219 C 862.570312 503.089844 864.824219 507.5625 869.746094 507.5625 C 874.667969 507.5625 876.699219 504.515625 877.761719 502.09375 C 877.890625 501.800781 878.089844 501.644531 878.324219 501.644531 C 878.457031 501.644531 878.597656 501.6875 878.742188 501.777344 Z M 879.933594 502.328125 " fill-opacity="1" fill-rule="nonzero"/></g><g clip-path="url(#19428fe923)"><path stroke-linecap="butt" transform="matrix(0.110386, 0, 0, 0.11213, 814.961166, 484.554625)" fill="none" stroke-linejoin="miter" d="M 588.592019 158.507286 C 591.316828 159.796242 593.616991 160.911014 592.095345 164.603699 C 579.285205 195.817331 549.701566 233.406069 491.914387 233.406069 C 419.689261 233.406069 380.303388 184.913462 380.303388 120.395999 C 380.303388 70.509926 404.614344 2.195269 490.711225 2.195269 C 530.592518 2.195269 572.597038 20.693526 582.293111 65.005736 L 582.505433 66.886915 C 582.505433 69.882866 580.70069 71.903391 577.303526 72.809144 L 539.014654 86.116742 C 537.599169 86.604455 536.289845 86.813475 535.192844 86.813475 C 532.78652 86.813475 531.406422 85.594192 531.689519 83.713013 L 532.184938 79.114576 L 532.397261 73.714897 C 532.397261 52.499381 522.488865 25.605493 488.198739 25.605493 C 445.486476 25.605493 431.296238 73.610387 431.296238 107.192911 C 431.296238 165.300431 451.714611 205.188388 496.302391 205.188388 C 540.890172 205.188388 559.291478 178.015806 568.916777 156.417087 C 570.084552 153.804339 571.889295 152.410874 574.012523 152.410874 C 575.215685 152.410874 576.489622 152.794077 577.798946 153.595319 Z M 588.592019 158.507286 " stroke="#c1893f" stroke-width="3" stroke-opacity="1" stroke-miterlimit="10"/></g><g clip-path="url(#47363e19f9)"><path fill="#0b3d33" d="M 904.574219 503.203125 C 904.761719 503.3125 904.847656 503.449219 904.847656 503.617188 C 904.847656 503.707031 904.816406 503.808594 904.761719 503.910156 L 901.660156 510.570312 C 901.570312 510.757812 901.425781 510.871094 901.261719 510.871094 C 901.160156 510.871094 901.0625 510.828125 900.964844 510.738281 L 900.773438 510.570312 C 900.585938 510.402344 900.390625 510.402344 900.144531 510.402344 L 882.019531 510.402344 C 881.699219 510.402344 881.523438 510.222656 881.523438 509.894531 L 881.523438 508.886719 C 881.523438 508.5625 881.699219 508.382812 882.019531 508.382812 L 882.054688 508.382812 C 883.875 508.382812 884.460938 507.015625 884.460938 505.1875 L 884.460938 490.40625 C 884.460938 488.582031 883.875 487.210938 882.054688 487.210938 L 882.019531 487.210938 C 881.699219 487.210938 881.523438 487.03125 881.523438 486.707031 L 881.523438 485.699219 C 881.523438 485.375 881.699219 485.183594 882.019531 485.183594 L 898.601562 485.183594 C 898.84375 485.183594 899.042969 485.183594 899.230469 485.003906 L 899.417969 484.835938 C 899.507812 484.757812 899.605469 484.722656 899.703125 484.722656 C 899.871094 484.722656 900.015625 484.824219 900.125 485.003906 L 902.761719 489.589844 C 902.828125 489.691406 902.851562 489.792969 902.851562 489.890625 C 902.851562 490.058594 902.75 490.195312 902.574219 490.308594 L 901.183594 491.058594 C 901.085938 491.113281 900.984375 491.148438 900.886719 491.148438 C 900.71875 491.148438 900.585938 491.058594 900.476562 490.867188 L 900.367188 490.675781 C 899.121094 488.5 897.785156 487.570312 895.089844 487.570312 L 889.527344 487.570312 L 889.527344 495.453125 L 892.617188 495.453125 C 894.363281 495.453125 895.675781 494.894531 895.765625 493.1875 L 895.765625 492.964844 C 895.765625 492.640625 895.941406 492.460938 896.261719 492.460938 L 897.253906 492.460938 C 897.574219 492.460938 897.75 492.640625 897.75 492.964844 L 897.75 500.613281 C 897.75 500.9375 897.574219 501.117188 897.253906 501.117188 L 896.261719 501.117188 C 895.941406 501.117188 895.765625 500.9375 895.765625 500.613281 L 895.765625 500.410156 C 895.675781 498.707031 894.363281 498.144531 892.617188 498.144531 L 889.726562 498.144531 L 889.726562 504.816406 C 889.726562 506.597656 890.289062 507.957031 892.011719 508.011719 L 894.152344 508.011719 C 897.164062 508.011719 899.804688 507.789062 902.695312 502.957031 L 902.804688 502.765625 C 902.917969 502.574219 903.050781 502.472656 903.214844 502.472656 C 903.304688 502.472656 903.402344 502.507812 903.5 502.5625 Z M 904.574219 503.203125 " fill-opacity="1" fill-rule="nonzero"/></g><g clip-path="url(#b2ddcbc95f)"><path stroke-linecap="butt" transform="matrix(0.110386, 0, 0, 0.11213, 814.961166, 484.554625)" fill="none" stroke-linejoin="miter" d="M 811.814019 166.310694 C 813.512601 167.28612 814.291118 168.505403 814.291118 170.003378 C 814.291118 170.804621 814.008021 171.710374 813.512601 172.616127 L 785.415222 232.012603 C 784.601318 233.684762 783.291994 234.695024 781.805735 234.695024 C 780.885669 234.695024 780.000991 234.311821 779.116313 233.510579 L 777.382344 232.012603 C 775.683762 230.514627 773.914405 230.514627 771.685016 230.514627 L 607.488745 230.514627 C 604.587001 230.514627 602.99458 228.912142 602.99458 225.985864 L 602.99458 216.99801 C 602.99458 214.106568 604.587001 212.504083 607.488745 212.504083 L 607.80723 212.504083 C 624.297631 212.504083 629.6057 200.311258 629.6057 184.007709 L 629.6057 52.185851 C 629.6057 35.917139 624.297631 23.689477 607.80723 23.689477 L 607.488745 23.689477 C 604.587001 23.689477 602.99458 22.086992 602.99458 19.19555 L 602.99458 10.207696 C 602.99458 7.316255 604.587001 5.60926 607.488745 5.60926 L 757.707101 5.60926 C 759.901103 5.60926 761.705846 5.60926 763.404428 4.006774 L 765.103011 2.508798 C 765.916914 1.812065 766.801593 1.498536 767.686271 1.498536 C 769.207917 1.498536 770.517241 2.404288 771.508081 4.006774 L 795.394392 44.904993 C 795.995973 45.810746 796.208295 46.716498 796.208295 47.587414 C 796.208295 49.08539 795.28823 50.304673 793.695809 51.314935 L 781.097992 58.003571 C 780.213314 58.491284 779.293249 58.804814 778.40857 58.804814 C 776.886924 58.804814 775.683762 58.003571 774.692922 56.296575 L 773.702083 54.58958 C 762.413589 35.18557 750.311191 26.894448 725.894073 26.894448 L 675.502804 26.894448 L 675.502804 97.194794 L 703.494022 97.194794 C 719.312068 97.194794 731.202143 92.213154 732.016046 76.989541 L 732.016046 75.003853 C 732.016046 72.112411 733.608467 70.509926 736.510212 70.509926 L 745.498542 70.509926 C 748.400286 70.509926 749.992707 72.112411 749.992707 75.003853 L 749.992707 143.214 C 749.992707 146.105441 748.400286 147.707927 745.498542 147.707927 L 736.510212 147.707927 C 733.608467 147.707927 732.016046 146.105441 732.016046 143.214 L 732.016046 141.402494 C 731.202143 126.213718 719.312068 121.197241 703.494022 121.197241 L 677.307548 121.197241 L 677.307548 180.698228 C 677.307548 196.583737 682.403294 208.706889 698.009017 209.194602 L 717.401163 209.194602 C 744.684638 209.194602 768.606336 207.208913 794.79281 164.115986 L 795.78365 162.40899 C 796.809877 160.701995 798.013039 159.796242 799.499298 159.796242 C 800.313202 159.796242 801.19788 160.109772 802.082559 160.597485 Z M 811.814019 166.310694 " stroke="#c1893f" stroke-width="3" stroke-opacity="1" stroke-miterlimit="10"/></g><path stroke-linecap="butt" transform="matrix(-1.557295, 0, 0, -1.557295, 814.807017, 336.710851)" fill="none" stroke-linejoin="miter" d="M -0.00101236 2.500776 L 391.074269 2.500776 " stroke="#c1893f" stroke-width="5" stroke-opacity="1" stroke-miterlimit="4"/><path stroke-linecap="butt" transform="matrix(-1.557295, 0, 0, -1.557295, 814.807017, 354.951851)" fill="none" stroke-linejoin="miter" d="M -0.00101236 1.499179 L 391.074269 1.499179 " stroke="#0b3d33" stroke-width="3" stroke-opacity="1" stroke-miterlimit="4"/><path stroke-linecap="butt" transform="matrix(1.557295, 0, 0, 1.557295, 206.994345, 81.920406)" fill="none" stroke-linejoin="miter" d="M 0.00112279 2.499266 L 391.073895 2.499266 " stroke="#c1893f" stroke-width="5" stroke-opacity="1" stroke-miterlimit="4"/><path stroke-linecap="butt" transform="matrix(1.557295, 0, 0, 1.557295, 206.994345, 63.232869)" fill="none" stroke-linejoin="miter" d="M 0.00112279 1.500964 L 391.073895 1.500964 " stroke="#0b3d33" stroke-width="3" stroke-opacity="1" stroke-miterlimit="4"/><g fill="#0b3d33" fill-opacity="1"><g transform="translate(837.241162, 439.188857)"><g><path d="M 19.46875 -23.21875 L 19.46875 -19.734375 L 10.84375 0 L 5.015625 0 L 13.328125 -18.84375 L 5.640625 -18.84375 L 5.640625 -15.0625 L 0.859375 -15.0625 L 0.859375 -23.21875 Z M 19.46875 -23.21875 "/></g></g></g><g fill="#0b3d33" fill-opacity="1"><g transform="translate(857.239983, 439.188857)"><g><path d="M 9.25 -14.5 C 12.53125 -14.5 14.945312 -13.84375 16.5 -12.53125 C 18.0625 -11.226562 18.84375 -9.484375 18.84375 -7.296875 C 18.84375 -5.878906 18.488281 -4.585938 17.78125 -3.421875 C 17.070312 -2.265625 15.992188 -1.335938 14.546875 -0.640625 C 13.097656 0.046875 11.3125 0.390625 9.1875 0.390625 C 7.550781 0.390625 5.941406 0.175781 4.359375 -0.25 C 2.773438 -0.675781 1.429688 -1.289062 0.328125 -2.09375 L 2.453125 -6.203125 C 3.335938 -5.535156 4.351562 -5.019531 5.5 -4.65625 C 6.65625 -4.289062 7.84375 -4.109375 9.0625 -4.109375 C 10.40625 -4.109375 11.460938 -4.375 12.234375 -4.90625 C 13.015625 -5.4375 13.40625 -6.175781 13.40625 -7.125 C 13.40625 -8.125 13 -8.878906 12.1875 -9.390625 C 11.382812 -9.898438 9.988281 -10.15625 8 -10.15625 L 2.0625 -10.15625 L 3.25 -23.21875 L 17.421875 -23.21875 L 17.421875 -18.90625 L 7.734375 -18.90625 L 7.359375 -14.5 Z M 9.25 -14.5 "/></g></g></g><g fill="#0b3d33" fill-opacity="1"><g transform="translate(876.641867, 439.188857)"><g><path d="M 6.671875 -10.6875 C 4.960938 -10.6875 3.570312 -11.265625 2.5 -12.421875 C 1.425781 -13.585938 0.890625 -15.140625 0.890625 -17.078125 C 0.890625 -19.023438 1.425781 -20.578125 2.5 -21.734375 C 3.570312 -22.898438 4.960938 -23.484375 6.671875 -23.484375 C 8.367188 -23.484375 9.75 -22.898438 10.8125 -21.734375 C 11.875 -20.578125 12.40625 -19.023438 12.40625 -17.078125 C 12.40625 -15.140625 11.875 -13.585938 10.8125 -12.421875 C 9.75 -11.265625 8.367188 -10.6875 6.671875 -10.6875 Z M 20.5 -23.21875 L 24.453125 -23.21875 L 8.59375 0 L 4.640625 0 Z M 6.671875 -13.40625 C 7.421875 -13.40625 8.007812 -13.710938 8.4375 -14.328125 C 8.875 -14.953125 9.09375 -15.867188 9.09375 -17.078125 C 9.09375 -18.296875 8.875 -19.210938 8.4375 -19.828125 C 8.007812 -20.453125 7.421875 -20.765625 6.671875 -20.765625 C 5.941406 -20.765625 5.351562 -20.445312 4.90625 -19.8125 C 4.46875 -19.1875 4.25 -18.273438 4.25 -17.078125 C 4.25 -15.890625 4.46875 -14.976562 4.90625 -14.34375 C 5.351562 -13.71875 5.941406 -13.40625 6.671875 -13.40625 Z M 22.421875 0.265625 C 21.316406 0.265625 20.328125 0.00390625 19.453125 -0.515625 C 18.578125 -1.035156 17.894531 -1.78125 17.40625 -2.75 C 16.925781 -3.726562 16.6875 -4.859375 16.6875 -6.140625 C 16.6875 -7.421875 16.925781 -8.546875 17.40625 -9.515625 C 17.894531 -10.492188 18.578125 -11.238281 19.453125 -11.75 C 20.328125 -12.269531 21.316406 -12.53125 22.421875 -12.53125 C 24.128906 -12.53125 25.519531 -11.953125 26.59375 -10.796875 C 27.664062 -9.640625 28.203125 -8.085938 28.203125 -6.140625 C 28.203125 -4.191406 27.664062 -2.632812 26.59375 -1.46875 C 25.519531 -0.3125 24.128906 0.265625 22.421875 0.265625 Z M 22.421875 -2.453125 C 23.171875 -2.453125 23.757812 -2.765625 24.1875 -3.390625 C 24.625 -4.023438 24.84375 -4.941406 24.84375 -6.140625 C 24.84375 -7.328125 24.625 -8.234375 24.1875 -8.859375 C 23.757812 -9.492188 23.171875 -9.8125 22.421875 -9.8125 C 21.691406 -9.8125 21.101562 -9.503906 20.65625 -8.890625 C 20.21875 -8.273438 20 -7.359375 20 -6.140625 C 20 -4.921875 20.21875 -4 20.65625 -3.375 C 21.101562 -2.757812 21.691406 -2.453125 22.421875 -2.453125 Z M 22.421875 -2.453125 "/></g></g></g><g fill="#d24342" fill-opacity="1"><g transform="translate(112.961427, 439.188857)"><g><path d="M 18.640625 -4.375 L 18.640625 0 L 1.09375 0 L 1.09375 -3.484375 L 10.046875 -11.9375 C 11.003906 -12.84375 11.644531 -13.625 11.96875 -14.28125 C 12.300781 -14.9375 12.46875 -15.582031 12.46875 -16.21875 C 12.46875 -17.144531 12.148438 -17.859375 11.515625 -18.359375 C 10.890625 -18.859375 9.96875 -19.109375 8.75 -19.109375 C 7.738281 -19.109375 6.820312 -18.914062 6 -18.53125 C 5.1875 -18.144531 4.503906 -17.5625 3.953125 -16.78125 L 0.03125 -19.3125 C 0.9375 -20.65625 2.1875 -21.707031 3.78125 -22.46875 C 5.375 -23.238281 7.195312 -23.625 9.25 -23.625 C 10.976562 -23.625 12.488281 -23.335938 13.78125 -22.765625 C 15.070312 -22.203125 16.078125 -21.40625 16.796875 -20.375 C 17.515625 -19.351562 17.875 -18.144531 17.875 -16.75 C 17.875 -15.488281 17.609375 -14.304688 17.078125 -13.203125 C 16.546875 -12.097656 15.519531 -10.835938 14 -9.421875 L 8.65625 -4.375 Z M 18.640625 -4.375 "/></g></g></g><g fill="#d24342" fill-opacity="1"><g transform="translate(132.529174, 439.188857)"><g><path d="M 9.25 -14.5 C 12.53125 -14.5 14.945312 -13.84375 16.5 -12.53125 C 18.0625 -11.226562 18.84375 -9.484375 18.84375 -7.296875 C 18.84375 -5.878906 18.488281 -4.585938 17.78125 -3.421875 C 17.070312 -2.265625 15.992188 -1.335938 14.546875 -0.640625 C 13.097656 0.046875 11.3125 0.390625 9.1875 0.390625 C 7.550781 0.390625 5.941406 0.175781 4.359375 -0.25 C 2.773438 -0.675781 1.429688 -1.289062 0.328125 -2.09375 L 2.453125 -6.203125 C 3.335938 -5.535156 4.351562 -5.019531 5.5 -4.65625 C 6.65625 -4.289062 7.84375 -4.109375 9.0625 -4.109375 C 10.40625 -4.109375 11.460938 -4.375 12.234375 -4.90625 C 13.015625 -5.4375 13.40625 -6.175781 13.40625 -7.125 C 13.40625 -8.125 13 -8.878906 12.1875 -9.390625 C 11.382812 -9.898438 9.988281 -10.15625 8 -10.15625 L 2.0625 -10.15625 L 3.25 -23.21875 L 17.421875 -23.21875 L 17.421875 -18.90625 L 7.734375 -18.90625 L 7.359375 -14.5 Z M 9.25 -14.5 "/></g></g></g><g fill="#d24342" fill-opacity="1"><g transform="translate(151.931058, 439.188857)"><g><path d="M 6.671875 -10.6875 C 4.960938 -10.6875 3.570312 -11.265625 2.5 -12.421875 C 1.425781 -13.585938 0.890625 -15.140625 0.890625 -17.078125 C 0.890625 -19.023438 1.425781 -20.578125 2.5 -21.734375 C 3.570312 -22.898438 4.960938 -23.484375 6.671875 -23.484375 C 8.367188 -23.484375 9.75 -22.898438 10.8125 -21.734375 C 11.875 -20.578125 12.40625 -19.023438 12.40625 -17.078125 C 12.40625 -15.140625 11.875 -13.585938 10.8125 -12.421875 C 9.75 -11.265625 8.367188 -10.6875 6.671875 -10.6875 Z M 20.5 -23.21875 L 24.453125 -23.21875 L 8.59375 0 L 4.640625 0 Z M 6.671875 -13.40625 C 7.421875 -13.40625 8.007812 -13.710938 8.4375 -14.328125 C 8.875 -14.953125 9.09375 -15.867188 9.09375 -17.078125 C 9.09375 -18.296875 8.875 -19.210938 8.4375 -19.828125 C 8.007812 -20.453125 7.421875 -20.765625 6.671875 -20.765625 C 5.941406 -20.765625 5.351562 -20.445312 4.90625 -19.8125 C 4.46875 -19.1875 4.25 -18.273438 4.25 -17.078125 C 4.25 -15.890625 4.46875 -14.976562 4.90625 -14.34375 C 5.351562 -13.71875 5.941406 -13.40625 6.671875 -13.40625 Z M 22.421875 0.265625 C 21.316406 0.265625 20.328125 0.00390625 19.453125 -0.515625 C 18.578125 -1.035156 17.894531 -1.78125 17.40625 -2.75 C 16.925781 -3.726562 16.6875 -4.859375 16.6875 -6.140625 C 16.6875 -7.421875 16.925781 -8.546875 17.40625 -9.515625 C 17.894531 -10.492188 18.578125 -11.238281 19.453125 -11.75 C 20.328125 -12.269531 21.316406 -12.53125 22.421875 -12.53125 C 24.128906 -12.53125 25.519531 -11.953125 26.59375 -10.796875 C 27.664062 -9.640625 28.203125 -8.085938 28.203125 -6.140625 C 28.203125 -4.191406 27.664062 -2.632812 26.59375 -1.46875 C 25.519531 -0.3125 24.128906 0.265625 22.421875 0.265625 Z M 22.421875 -2.453125 C 23.171875 -2.453125 23.757812 -2.765625 24.1875 -3.390625 C 24.625 -4.023438 24.84375 -4.941406 24.84375 -6.140625 C 24.84375 -7.328125 24.625 -8.234375 24.1875 -8.859375 C 23.757812 -9.492188 23.171875 -9.8125 22.421875 -9.8125 C 21.691406 -9.8125 21.101562 -9.503906 20.65625 -8.890625 C 20.21875 -8.273438 20 -7.359375 20 -6.140625 C 20 -4.921875 20.21875 -4 20.65625 -3.375 C 21.101562 -2.757812 21.691406 -2.453125 22.421875 -2.453125 Z M 22.421875 -2.453125 "/></g></g></g></svg>