<svg xmlns="http://www.w3.org/2000/svg" xmlns:xlink="http://www.w3.org/1999/xlink" viewBox="0 0 136.49 6.02"><defs><radialGradient id="radial-gradient" cx="68.24" cy="3.01" r="48.3" gradientUnits="userSpaceOnUse"><stop offset="0" stop-color="#fcab31"/><stop offset="1" stop-color="#f8a830" stop-opacity="0.1"/></radialGradient></defs><g id="Layer_2" data-name="Layer 2"><g id="Radial_Gradient" data-name="Radial Gradient"><path d="M65.65,6,62.46,2.83,59.27,6,57.85,4.6,62.46,0l4.6,4.6ZM55.49,4.6,50.89,0,46.28,4.6,47.7,6l3.19-3.19L54.08,6Zm-11.57,0L39.32,0,34.71,4.6,36.13,6l3.19-3.19L42.51,6Zm-11.57,0L27.75,0,23.14,4.6,24.56,6l3.19-3.19L30.94,6Zm-11.57,0L16.17,0l-4.6,4.6L13,6l3.19-3.19L19.37,6ZM9.21,4.6,4.6,0,0,4.6,1.41,6,4.6,2.83,7.79,6Zm127.28,0L131.88,0l-4.6,4.6L128.69,6l3.19-3.19L135.07,6Zm-11.57,0L120.31,0l-4.6,4.6L117.12,6l3.19-3.19L123.5,6Zm-11.57,0L108.74,0l-4.6,4.6L105.55,6l3.19-3.19L111.93,6ZM97.17,2.83,100.36,6l1.41-1.42L97.17,0l-4.6,4.6L94,6Zm-11.57,0L88.79,6,90.2,4.6,85.6,0,81,4.6,82.41,6ZM74,2.83,77.22,6,78.63,4.6,74,0,69.42,4.6,70.84,6Z" fill="url(#radial-gradient)"/></g></g></svg>